<?xml version="1.0" standalone="no"?>
<!DOCTYPE svg PUBLIC "-//W3C//DTD SVG 20010904//EN"
 "http://www.w3.org/TR/2001/REC-SVG-20010904/DTD/svg10.dtd">
<svg version="1.0" xmlns="http://www.w3.org/2000/svg"
 width="2440.000000pt" height="2440.000000pt" viewBox="0 0 2440.000000 2440.000000"
 preserveAspectRatio="xMidYMid meet">
<metadata>
Created by potrace 1.14, written by Peter Selinger 2001-2017
</metadata>
<g transform="translate(0.000000,2440.000000) scale(0.100000,-0.100000)"
fill="#000000" stroke="none">
<path d="M11789 23206 c-2 -2 -74 -7 -159 -10 -170 -8 -208 -10 -385 -26 -66
-6 -145 -12 -175 -15 -30 -3 -71 -7 -90 -9 -19 -3 -60 -8 -90 -11 -76 -9 -116
-14 -159 -19 -20 -3 -56 -8 -81 -11 -45 -5 -112 -15 -140 -20 -8 -1 -35 -6
-60 -10 -25 -3 -92 -15 -150 -25 -58 -10 -118 -21 -135 -24 -50 -7 -194 -36
-315 -63 -63 -13 -126 -27 -140 -29 -14 -3 -43 -10 -65 -16 -22 -6 -49 -13
-60 -15 -107 -19 -609 -162 -855 -243 -264 -87 -674 -240 -800 -298 -25 -11
-73 -32 -107 -46 -59 -25 -123 -53 -223 -98 -25 -12 -132 -63 -238 -114 -106
-51 -194 -92 -196 -91 -1 1 -9 -3 -17 -10 -8 -6 -54 -32 -104 -58 -76 -40
-172 -93 -320 -175 -16 -9 -111 -65 -210 -125 -162 -97 -251 -153 -384 -241
-24 -16 -51 -34 -60 -39 -27 -17 -193 -131 -246 -169 -27 -20 -58 -41 -69 -48
-38 -26 -402 -301 -431 -327 -17 -14 -48 -39 -69 -56 -95 -73 -428 -359 -496
-425 -3 -3 -19 -18 -36 -33 l-31 -28 -23 68 c-47 141 -99 234 -244 438 -191
269 -271 359 -422 471 -43 32 -80 62 -82 67 -2 4 -8 7 -13 7 -4 0 -44 27 -88
60 -44 33 -97 70 -118 82 -21 12 -40 25 -43 29 -8 12 -178 95 -240 118 -52 19
-225 67 -280 77 -14 3 -52 12 -85 21 -33 8 -71 17 -85 20 -14 2 -52 11 -85 20
-147 38 -258 51 -410 48 -82 -1 -161 -6 -175 -9 -14 -4 -40 -9 -59 -12 -43 -7
-35 -5 -241 -54 -96 -23 -182 -43 -190 -45 -57 -12 -126 -31 -195 -55 -183
-64 -248 -103 -584 -347 -103 -75 -206 -170 -281 -258 -34 -40 -217 -296 -266
-370 -21 -33 -41 -62 -44 -65 -6 -6 -78 -154 -90 -185 -29 -75 -63 -194 -86
-302 -2 -12 -16 -71 -30 -130 -14 -60 -27 -115 -29 -123 -2 -8 -9 -37 -15 -65
-30 -131 -38 -207 -35 -350 3 -160 4 -164 41 -325 14 -58 27 -114 29 -125 3
-11 16 -69 31 -130 14 -60 28 -119 30 -130 8 -44 48 -171 56 -180 4 -5 8 -15
8 -22 0 -34 113 -238 191 -343 14 -19 68 -93 120 -165 108 -149 226 -272 352
-365 l87 -64 0 -1103 c0 -1087 0 -1102 -20 -1113 -44 -23 -139 -111 -171 -157
-19 -28 -67 -95 -106 -151 -82 -113 -112 -161 -118 -188 -2 -11 -18 -77 -35
-149 -18 -71 -33 -137 -35 -145 -2 -8 -15 -65 -29 -127 -26 -111 -26 -115 -26
-536 l0 -424 -30 -34 c-56 -63 -259 -353 -295 -421 -57 -108 -63 -127 -162
-548 -41 -174 -46 -209 -47 -320 -1 -143 0 -152 49 -355 19 -82 47 -199 61
-260 30 -127 52 -192 93 -273 28 -55 227 -342 297 -429 l34 -41 0 -654 c0
-729 -7 -638 80 -1002 23 -99 50 -198 60 -220 18 -42 211 -318 259 -370 52
-56 365 -271 422 -289 l54 -18 59 -132 c33 -72 84 -174 113 -224 29 -51 53
-95 53 -97 0 -13 262 -394 335 -487 11 -14 27 -36 35 -49 18 -28 164 -212 205
-259 125 -144 321 -344 443 -451 45 -40 85 -91 144 -185 98 -156 261 -404 303
-461 16 -23 50 -70 75 -104 220 -311 594 -779 750 -941 14 -15 53 -57 86 -95
124 -139 262 -281 466 -479 190 -185 277 -266 436 -403 43 -37 79 -69 82 -72
4 -5 146 -123 225 -188 220 -180 601 -458 880 -643 167 -111 675 -419 690
-419 2 0 26 -13 52 -28 26 -16 116 -64 198 -107 83 -43 157 -82 165 -86 16 -9
284 -137 380 -182 65 -30 459 -198 510 -216 19 -8 49 -19 65 -26 111 -49 577
-209 810 -278 247 -74 597 -168 685 -183 14 -3 52 -11 85 -19 160 -37 425 -90
510 -101 28 -3 52 -8 55 -9 3 -2 26 -6 50 -10 25 -3 70 -10 100 -15 30 -5 78
-12 105 -16 28 -3 59 -8 70 -10 11 -2 44 -6 73 -10 29 -3 62 -7 72 -9 10 -2
50 -7 87 -10 37 -4 77 -8 89 -10 11 -2 52 -6 90 -9 38 -4 87 -9 109 -11 22 -2
76 -7 120 -10 44 -3 103 -8 130 -10 234 -20 1012 -27 1295 -12 207 11 382 23
465 32 22 2 67 7 100 10 33 3 94 10 135 15 41 5 99 12 129 15 30 4 61 8 70 10
9 1 45 6 81 10 36 3 72 8 80 10 8 3 76 13 150 25 199 30 375 64 745 145 527
115 1358 388 1833 601 29 13 54 24 57 24 2 0 43 18 92 40 48 23 110 51 138 63
71 31 527 259 610 305 64 35 136 75 223 124 256 143 669 409 947 608 139 100
427 317 460 347 11 10 54 45 95 78 73 58 194 158 216 179 6 6 33 30 60 52 166
141 268 238 554 524 157 157 301 303 321 325 19 22 89 101 155 175 188 212
366 429 534 655 58 77 107 142 110 145 3 3 26 34 51 70 223 317 376 552 536
825 95 162 117 199 213 375 69 126 305 607 365 745 72 163 62 140 143 340 l69
170 109 28 c107 28 112 31 258 135 159 115 196 151 306 307 39 55 77 108 85
117 16 19 95 157 95 165 0 3 6 19 14 36 47 105 70 188 187 687 l32 135 4 365
c3 317 6 366 20 375 63 41 199 148 251 199 53 51 144 166 235 296 78 111 123
184 148 238 23 52 72 221 93 327 3 11 19 81 36 155 44 186 45 190 45 325 0
107 -9 175 -36 270 -4 17 -11 41 -13 55 -6 27 -35 153 -42 183 -2 9 -6 25 -8
35 -2 9 -9 37 -16 62 -7 25 -14 53 -16 63 -13 71 -63 186 -118 272 -28 44 -55
85 -61 91 -5 6 -17 22 -25 34 -67 98 -173 236 -222 286 -33 34 -106 95 -163
135 l-104 74 -1 402 c0 423 1 405 -51 623 -12 47 -23 94 -25 105 -22 114 -55
220 -73 235 -3 3 -22 28 -41 55 -19 28 -38 55 -43 60 -4 6 -29 40 -55 77 -36
50 -75 86 -153 144 -57 42 -110 78 -116 81 -10 4 -13 227 -13 1067 l0 1062 77
54 c127 91 246 218 389 415 71 99 144 203 161 230 39 62 101 185 118 235 1 3
5 14 9 25 4 11 12 31 17 45 16 44 130 532 148 635 14 74 18 138 15 245 -3 143
-4 165 -18 225 -3 17 -8 39 -10 50 -2 11 -23 101 -46 200 -24 99 -49 207 -56
240 -49 217 -128 375 -322 640 -29 39 -60 81 -69 94 -117 160 -209 248 -416
398 -89 64 -164 120 -167 124 -3 3 -18 14 -35 23 -16 9 -46 26 -65 38 -127 76
-273 134 -410 163 -8 1 -33 8 -55 14 -22 5 -56 13 -75 16 -19 3 -46 10 -60 14
-22 8 -73 21 -145 36 -11 2 -65 14 -120 26 -75 16 -137 22 -245 23 -175 1
-227 -4 -395 -43 -516 -118 -596 -144 -770 -246 -131 -77 -438 -307 -525 -395
-112 -112 -355 -443 -431 -589 -32 -61 -32 -61 -53 -43 -12 10 -50 43 -86 73
-35 30 -73 62 -85 73 -41 38 -354 286 -470 372 -342 257 -680 482 -1040 693
-77 45 -147 86 -155 91 -8 5 -44 25 -80 44 -36 19 -94 51 -130 71 -95 54 -451
230 -630 312 -132 60 -193 87 -325 143 -11 4 -40 17 -65 28 -202 89 -769 287
-1075 377 -222 64 -634 170 -790 201 -11 2 -54 11 -95 19 -41 8 -86 17 -100
20 -14 3 -50 9 -80 15 -30 6 -66 12 -80 15 -48 10 -195 35 -230 39 -19 3 -48
7 -65 10 -46 7 -233 33 -301 41 -22 3 -55 7 -74 10 -19 2 -57 7 -85 10 -27 2
-70 7 -95 9 -25 3 -76 8 -115 11 -38 3 -90 8 -115 10 -25 2 -88 7 -140 10 -52
3 -129 8 -170 11 -87 6 -956 15 -961 10z"/>
</g>
</svg>
